<svg width="38" height="38" viewBox="0 0 38 38" fill="none" xmlns="http://www.w3.org/2000/svg">
<path id="Vector (Stroke)" fill-rule="evenodd" clip-rule="evenodd" d="M11.5361 2.78249C13.5156 1.00089 16.2005 0 19 0C21.7995 0 24.4844 1.00089 26.4639 2.78249C28.4435 4.56408 29.5556 6.98044 29.5556 9.5V15.2H31.6667C33.3464 15.2 34.9573 15.8005 36.145 16.8695C37.3327 17.9384 38 19.3883 38 20.9V32.3C38 33.8117 37.3327 35.2616 36.145 36.3305C34.9573 37.3995 33.3464 38 31.6667 38H6.33333C4.65363 38 3.04272 37.3995 1.85499 36.3305C0.66726 35.2615 0 33.8117 0 32.3V20.9C0 19.3883 0.66726 17.9384 1.85499 16.8695C3.04272 15.8005 4.65363 15.2 6.33333 15.2H8.44444V9.5C8.44444 6.98044 9.55654 4.56408 11.5361 2.78249ZM12.6667 15.2H25.3333V9.5C25.3333 7.98827 24.6661 6.53845 23.4783 5.46949C22.2906 4.40053 20.6797 3.8 19 3.8C17.3203 3.8 15.7094 4.40053 14.5217 5.46949C13.3339 6.53845 12.6667 7.98827 12.6667 9.5V15.2ZM6.33333 19C5.77343 19 5.23646 19.2002 4.84055 19.5565C4.44464 19.9128 4.22222 20.3961 4.22222 20.9V32.3C4.22222 32.8039 4.44464 33.2872 4.84055 33.6435C5.23646 33.9998 5.77343 34.2 6.33333 34.2H31.6667C32.2266 34.2 32.7635 33.9998 33.1594 33.6435C33.5554 33.2872 33.7778 32.8039 33.7778 32.3V20.9C33.7778 20.3961 33.5554 19.9128 33.1594 19.5565C32.7635 19.2002 32.2266 19 31.6667 19H6.33333ZM19 22.8C20.1659 22.8 21.1111 23.6507 21.1111 24.7V28.5C21.1111 29.5493 20.1659 30.4 19 30.4C17.8341 30.4 16.8889 29.5493 16.8889 28.5V24.7C16.8889 23.6507 17.8341 22.8 19 22.8Z" fill="black"/>
</svg>
